<?xml version="1.0" standalone="no"?>
<!DOCTYPE svg PUBLIC "-//W3C//DTD SVG 20010904//EN"
 "http://www.w3.org/TR/2001/REC-SVG-20010904/DTD/svg10.dtd">
<svg version="1.0" xmlns="http://www.w3.org/2000/svg"
 width="1000.000000pt" height="1000.000000pt" viewBox="0 0 1000.000000 1000.000000"
 preserveAspectRatio="xMidYMid meet">
<metadata>
Created by potrace 1.14, written by Peter Selinger 2001-2017
</metadata>
<g transform="translate(0.000000,1000.000000) scale(0.100000,-0.100000)"
fill="#000000" stroke="none">
<path d="M8109 6945 c-162 -26 -295 -66 -437 -131 -41 -19 -75 -34 -77 -34 -2
0 -41 -23 -87 -51 -546 -333 -845 -930 -784 -1563 4 -43 10 -88 12 -100 2 -12
7 -34 10 -51 40 -225 165 -502 303 -675 20 -24 45 -56 56 -69 11 -14 52 -57
91 -95 39 -39 314 -314 612 -610 l541 -540 525 525 c288 288 561 560 607 604
147 143 248 282 334 460 81 167 132 333 150 490 4 33 9 69 11 80 6 30 5 243
-1 300 -31 281 -118 523 -269 750 -239 358 -605 604 -1036 696 -132 28 -426
35 -561 14z m479 -267 c195 -35 393 -117 551 -229 72 -51 228 -198 285 -269
34 -42 116 -167 116 -177 0 -3 6 -14 14 -22 16 -19 89 -188 105 -246 66 -233
75 -463 27 -711 -17 -88 -100 -301 -149 -379 -100 -161 -184 -259 -327 -382
-54 -47 -203 -141 -267 -169 -32 -14 -71 -32 -88 -39 -77 -35 -262 -81 -365
-90 -67 -6 -245 -7 -280 -1 -14 2 -47 8 -75 12 -27 4 -52 8 -55 9 -3 0 -23 4
-45 9 -132 26 -344 121 -474 214 -369 262 -584 677 -583 1127 1 650 478 1225
1112 1340 19 4 55 10 80 15 85 14 306 8 418 -12z"/>
<path d="M8348 6385 c-2 -1 -41 -5 -88 -8 -97 -7 -110 -10 -200 -36 -237 -68
-448 -221 -576 -414 -26 -40 -56 -84 -66 -99 -10 -15 -18 -33 -18 -41 0 -7 -4
-17 -9 -23 -14 -14 -69 -182 -76 -234 -19 -126 -21 -156 -19 -226 2 -65 10
-140 20 -179 1 -5 5 -24 8 -42 8 -42 53 -167 78 -218 46 -91 132 -210 204
-281 363 -358 917 -410 1336 -124 234 161 394 408 443 687 16 91 18 260 5 335
-5 24 -11 59 -14 78 -8 52 -49 167 -85 238 -53 105 -100 172 -183 258 -179
186 -412 299 -658 320 -36 3 -73 7 -82 8 -9 2 -18 3 -20 1z m139 -134 c294
-42 560 -239 701 -517 22 -43 62 -155 68 -191 2 -13 7 -35 10 -50 3 -16 7 -80
9 -143 5 -174 -27 -312 -106 -458 -138 -258 -376 -429 -670 -482 -63 -12 -219
-14 -274 -5 -165 28 -266 67 -390 150 -289 193 -445 517 -413 860 21 216 104
396 258 558 206 217 506 320 807 278z"/>
<path d="M8190 5961 c-237 -62 -411 -236 -471 -469 -47 -184 -12 -382 94 -537
32 -45 147 -155 187 -176 19 -11 42 -23 50 -28 94 -52 179 -72 305 -72 169 0
329 67 454 192 73 73 122 153 159 258 23 66 26 92 26 196 0 133 -14 195 -66
299 -37 73 -52 94 -123 166 -66 67 -169 131 -261 160 -93 30 -262 35 -354 11z
m321 -128 c177 -60 326 -227 357 -400 20 -116 -3 -276 -50 -345 -10 -14 -18
-31 -18 -38 0 -18 -152 -163 -190 -182 -106 -51 -156 -64 -255 -67 -238 -7
-457 161 -520 399 -19 71 -14 228 10 295 58 168 211 308 381 349 78 19 213 13
285 -11z"/>
<path d="M949 6416 c-2 -2 -32 -6 -65 -9 -70 -7 -201 -38 -260 -63 -21 -9 -39
-15 -39 -14 0 7 -138 -79 -185 -116 -197 -152 -334 -419 -365 -715 -3 -30 -8
-64 -11 -76 -6 -32 -6 -288 1 -353 46 -434 223 -728 530 -881 149 -74 256 -98
470 -105 l130 -4 29 -32 c43 -49 75 -86 136 -158 50 -59 99 -115 125 -144 6
-6 33 -38 60 -71 97 -116 69 -105 280 -105 102 0 185 2 185 5 0 3 -10 16 -22
29 -45 45 -426 442 -467 485 l-41 44 78 31 c320 129 533 450 579 873 10 91 10
340 0 433 -20 180 -82 369 -168 508 -51 83 -161 204 -232 256 -104 76 -252
138 -384 162 -13 2 -35 7 -50 10 -32 6 -308 15 -314 10z m247 -241 c208 -21
391 -135 495 -307 43 -71 94 -203 105 -273 3 -22 8 -43 10 -46 24 -40 25 -557
0 -597 -2 -4 -7 -24 -10 -46 -3 -21 -18 -72 -32 -114 -67 -202 -188 -342 -357
-416 -46 -20 -77 -30 -177 -52 -14 -3 -79 -7 -145 -8 -439 -10 -706 230 -772
696 -13 87 -9 435 6 518 24 137 72 263 133 355 53 79 90 118 163 170 148 106
338 145 581 120z"/>
<path d="M3478 6415 c-2 -1 -29 -5 -61 -9 -79 -8 -171 -30 -249 -59 -476 -180
-715 -637 -664 -1270 4 -49 11 -112 17 -140 6 -29 12 -63 15 -77 12 -65 61
-203 99 -275 135 -263 349 -421 652 -482 123 -24 447 -24 588 1 127 23 119 21
190 43 l60 19 3 118 c3 110 2 117 -15 112 -281 -82 -576 -102 -774 -51 -169
44 -318 149 -405 286 -104 164 -144 318 -149 574 -3 159 -1 186 29 355 14 76
66 202 119 285 38 60 156 180 212 216 120 76 240 109 405 114 185 5 318 -18
483 -85 39 -16 72 -28 72 -27 1 1 26 51 56 110 52 105 53 108 34 120 -67 40
-216 86 -330 102 -22 4 -53 9 -70 11 -31 6 -312 13 -317 9z"/>
<path d="M4343 6378 c-4 -7 -6 -126 -4 -200 l1 -28 359 0 359 0 1 -942 c0
-519 0 -978 1 -1020 l0 -78 130 0 c117 0 130 2 131 18 0 9 1 468 2 1020 l0
1002 359 0 c197 0 358 3 359 8 5 44 2 207 -3 215 -8 14 -1686 18 -1695 5z"/>
</g>
</svg>
